<svg width="16" height="16" viewBox="0 0 16 16" fill="none" xmlns="http://www.w3.org/2000/svg">
<rect x="0.35" y="0.35" width="15.3" height="15.3" rx="7.65" fill="#FFDC3C" stroke="black" stroke-width="0.7"/>
<path d="M7.00031 5.912H8.07231V5.056H4.79231V5.912H5.97631V6.272C5.97631 7.536 5.59231 8.856 4.52031 9.536L5.14431 10.312C5.80831 9.896 6.24031 9.176 6.49631 8.336C6.73631 9.112 7.16031 9.744 7.80831 10.136L8.42431 9.368C7.36031 8.744 7.00031 7.504 7.00031 6.272V5.912ZM8.49631 6.832H7.56031V7.688H8.49631V11.352H9.48031V4.44H8.49631V6.832ZM9.98431 4.312V11.68H10.9843V4.312H9.98431Z" fill="black"/>
</svg>
