<svg width="16" height="16" viewBox="0 0 16 16" fill="none" xmlns="http://www.w3.org/2000/svg">
<rect x="0.35" y="0.35" width="15.3" height="15.3" rx="7.65" fill="#4498F2" stroke="black" stroke-width="0.7"/>
<path d="M6.28831 6.728C6.28831 5.976 6.98431 5.536 7.99231 5.536C9.00831 5.536 9.70431 5.976 9.70431 6.728C9.70431 7.48 9.00831 7.92 7.99231 7.92C6.98431 7.92 6.28831 7.48 6.28831 6.728ZM8.52031 9.976V8.728C9.82431 8.576 10.7443 7.824 10.7443 6.728C10.7443 5.496 9.56831 4.696 7.99231 4.696C6.42431 4.696 5.24831 5.496 5.24831 6.728C5.24831 7.824 6.16831 8.568 7.46431 8.728V9.976H4.66431V10.832H11.3363V9.976H8.52031Z" fill="black"/>
</svg>
